<?xml version="1.0" encoding="UTF-8" standalone="no"?>
<svg width="904px" height="229px" viewBox="0 0 904 229" version="1.1" xmlns="http://www.w3.org/2000/svg" xmlns:xlink="http://www.w3.org/1999/xlink" xmlns:sketch="http://www.bohemiancoding.com/sketch/ns">
    <!-- Generator: Sketch 3.3.2 (12043) - http://www.bohemiancoding.com/sketch -->
    <title>bootstrap-seeklogo.com</title>
    <desc>Created with Sketch.</desc>
    <defs>
        <path id="path-1" d="M0.06,0.146 L903.888,0.146 L903.888,228.94 L0.06,228.94"></path>
    </defs>
    <g id="Page-1" stroke="none" stroke-width="1" fill="none" fill-rule="evenodd" sketch:type="MSPage">
        <g id="bootstrap-seeklogo.com" sketch:type="MSLayerGroup">
            <g id="Group-3">
                <mask id="mask-2" sketch:name="Clip 2" fill="white">
                    <use xlink:href="#path-1"></use>
                </mask>
                <g id="Clip-2"></g>
                <path d="M228.854,190.857 C228.854,211.836 211.69,229 190.711,229 L38.142,229 C17.164,229 0,211.836 0,190.857 L0,38.288 C0,17.31 17.164,0.146 38.142,0.146 L190.711,0.146 C211.69,0.146 228.854,17.31 228.854,38.288 L228.854,190.857" id="Fill-1" fill="#4D3F71" sketch:type="MSShapeGroup" mask="url(#mask-2)"></path>
            </g>
            <path d="M85.558,164.307 L126.879,164.307 C133.984,164.307 139.518,162.475 143.408,158.773 C147.334,155.108 149.316,149.873 149.316,143.142 C149.316,136.523 147.371,131.475 143.408,127.885 C139.444,124.295 133.984,122.575 126.879,122.575 L85.558,122.575 L85.558,164.307 L85.558,164.307 Z M85.558,105.785 L123.701,105.785 C129.31,105.785 133.984,104.215 137.724,100.999 C141.463,97.783 143.333,93.221 143.333,87.238 C143.333,80.507 141.65,75.758 138.284,73.028 C134.919,70.298 130.058,68.914 123.701,68.914 L85.558,68.914 L85.558,105.785 L85.558,105.785 Z M62.187,49.881 L127.066,49.881 C139.032,49.881 148.643,52.61 155.86,58.107 C163.077,63.604 166.704,71.868 166.704,82.975 C166.704,89.706 165.059,95.464 161.768,100.251 C158.477,105.037 153.766,108.777 147.633,111.394 L147.633,111.768 C155.86,113.526 162.105,117.415 166.33,123.435 C170.556,129.493 172.687,137.047 172.687,146.171 C172.687,151.406 171.752,156.305 169.883,160.83 C168.013,165.392 165.096,169.318 161.095,172.609 C157.094,175.9 152.008,178.517 145.763,180.462 C139.518,182.406 132.114,183.379 123.514,183.379 L62.187,183.379 L62.187,49.881 L62.187,49.881 Z" id="Fill-4" fill="#FFFFFF" sketch:type="MSShapeGroup"></path>
            <path d="M293.049,152.41 L319.782,152.41 C324.371,152.41 327.594,152.239 329.45,151.897 C332.721,151.311 335.456,150.335 337.654,148.968 C339.851,147.601 341.656,145.611 343.073,142.999 C344.489,140.386 345.197,137.371 345.197,133.953 C345.197,129.95 344.172,126.47 342.121,123.515 C340.07,120.562 337.226,118.487 333.588,117.29 C329.95,116.095 324.714,115.496 317.878,115.496 L293.049,115.496 L293.049,152.41 L293.049,152.41 Z M293.049,102.825 L316.267,102.825 C322.566,102.825 327.081,102.411 329.817,101.58 C333.43,100.507 336.153,98.723 337.983,96.233 C339.815,93.743 340.73,90.619 340.73,86.858 C340.73,83.295 339.875,80.156 338.166,77.446 C336.456,74.736 334.016,72.882 330.842,71.88 C327.667,70.88 322.223,70.379 314.509,70.379 L293.049,70.379 L293.049,102.825 L293.049,102.825 Z M278.84,165.081 L278.84,57.708 L319.123,57.708 C327.326,57.708 333.905,58.795 338.862,60.967 C343.818,63.14 347.699,66.485 350.508,71.001 C353.315,75.518 354.719,80.242 354.719,85.174 C354.719,89.764 353.474,94.085 350.984,98.138 C348.493,102.191 344.733,105.462 339.704,107.952 C346.197,109.856 351.191,113.104 354.682,117.693 C358.173,122.283 359.919,127.703 359.919,133.953 C359.919,138.982 358.858,143.657 356.733,147.979 C354.61,152.3 351.984,155.633 348.86,157.976 C345.735,160.32 341.816,162.091 337.104,163.286 C332.392,164.483 326.618,165.081 319.782,165.081 L278.84,165.081 L278.84,165.081 Z" id="Fill-5" fill="#4D3F71" sketch:type="MSShapeGroup"></path>
            <path d="M386.433,126.189 C386.433,136.15 388.605,143.609 392.951,148.565 C397.297,153.521 402.766,155.999 409.358,155.999 C415.901,155.999 421.344,153.509 425.691,148.528 C430.036,143.548 432.209,135.956 432.209,125.75 C432.209,116.131 430.024,108.844 425.654,103.887 C421.283,98.931 415.851,96.453 409.358,96.453 C402.766,96.453 397.297,98.919 392.951,103.85 C388.605,108.783 386.433,116.228 386.433,126.189 L386.433,126.189 Z M372.883,126.189 C372.883,111.786 376.886,101.116 384.895,94.182 C391.584,88.422 399.737,85.54 409.358,85.54 C420.051,85.54 428.791,89.044 435.578,96.05 C442.364,103.057 445.759,112.738 445.759,125.091 C445.759,135.1 444.258,142.974 441.254,148.712 C438.252,154.449 433.881,158.904 428.145,162.078 C422.406,165.252 416.144,166.839 409.358,166.839 C398.469,166.839 389.667,163.348 382.953,156.365 C376.239,149.383 372.883,139.325 372.883,126.189 L372.883,126.189 Z" id="Fill-6" fill="#4D3F71" sketch:type="MSShapeGroup"></path>
            <path d="M469.856,126.189 C469.856,136.15 472.028,143.609 476.374,148.565 C480.72,153.521 486.189,155.999 492.78,155.999 C499.323,155.999 504.766,153.509 509.113,148.528 C513.459,143.548 515.632,135.956 515.632,125.75 C515.632,116.131 513.446,108.844 509.077,103.887 C504.706,98.931 499.273,96.453 492.78,96.453 C486.189,96.453 480.72,98.919 476.374,103.85 C472.028,108.783 469.856,116.228 469.856,126.189 L469.856,126.189 Z M456.306,126.189 C456.306,111.786 460.309,101.116 468.318,94.182 C475.007,88.422 483.16,85.54 492.78,85.54 C503.473,85.54 512.214,89.044 519.001,96.05 C525.787,103.057 529.181,112.738 529.181,125.091 C529.181,135.1 527.68,142.974 524.676,148.712 C521.674,154.449 517.303,158.904 511.567,162.078 C505.829,165.252 499.566,166.839 492.78,166.839 C481.892,166.839 473.09,163.348 466.376,156.365 C459.662,149.383 456.306,139.325 456.306,126.189 L456.306,126.189 Z" id="Fill-7" fill="#4D3F71" sketch:type="MSShapeGroup"></path>
            <path d="M573.42,153.289 L575.324,164.934 C571.613,165.715 568.293,166.106 565.363,166.106 C560.577,166.106 556.867,165.348 554.23,163.836 C551.593,162.323 549.737,160.333 548.664,157.866 C547.59,155.401 547.052,150.213 547.052,142.303 L547.052,97.551 L537.384,97.551 L537.384,87.298 L547.052,87.298 L547.052,68.035 L560.163,60.125 L560.163,87.298 L573.42,87.298 L573.42,97.551 L560.163,97.551 L560.163,143.035 C560.163,146.796 560.394,149.213 560.859,150.286 C561.322,151.36 562.079,152.216 563.129,152.849 C564.178,153.484 565.68,153.802 567.633,153.802 C569.098,153.802 571.027,153.631 573.42,153.289" id="Fill-8" fill="#4D3F71" sketch:type="MSShapeGroup"></path>
            <path d="M581.037,141.863 L594.074,139.812 C594.806,145.038 596.844,149.041 600.19,151.824 C603.534,154.607 608.21,155.999 614.216,155.999 C620.269,155.999 624.762,154.766 627.692,152.3 C630.622,149.835 632.087,146.942 632.087,143.621 C632.087,140.643 630.793,138.3 628.205,136.59 C626.398,135.418 621.906,133.928 614.728,132.122 C605.06,129.68 598.358,127.569 594.624,125.786 C590.887,124.005 588.055,121.538 586.128,118.388 C584.198,115.239 583.234,111.761 583.234,107.952 C583.234,104.485 584.027,101.275 585.614,98.32 C587.201,95.367 589.361,92.913 592.096,90.96 C594.147,89.447 596.942,88.165 600.483,87.114 C604.022,86.065 607.818,85.54 611.872,85.54 C617.975,85.54 623.335,86.419 627.948,88.176 C632.563,89.934 635.968,92.314 638.166,95.317 C640.363,98.32 641.876,102.338 642.707,107.366 L629.816,109.124 C629.23,105.121 627.533,101.995 624.725,99.749 C621.918,97.504 617.951,96.38 612.824,96.38 C606.769,96.38 602.448,97.381 599.86,99.383 C597.271,101.386 595.978,103.729 595.978,106.414 C595.978,108.124 596.515,109.662 597.59,111.028 C598.663,112.445 600.347,113.617 602.643,114.544 C603.962,115.032 607.843,116.155 614.289,117.913 C623.615,120.403 630.121,122.442 633.807,124.028 C637.494,125.616 640.387,127.923 642.487,130.95 C644.586,133.978 645.636,137.737 645.636,142.229 C645.636,146.624 644.354,150.762 641.792,154.643 C639.227,158.526 635.529,161.528 630.695,163.653 C625.861,165.776 620.392,166.839 614.289,166.839 C604.181,166.839 596.478,164.74 591.18,160.54 C585.883,156.341 582.502,150.115 581.037,141.863" id="Fill-9" fill="#4D3F71" sketch:type="MSShapeGroup"></path>
            <path d="M690.094,153.289 L691.999,164.934 C688.288,165.715 684.967,166.106 682.038,166.106 C677.252,166.106 673.542,165.348 670.905,163.836 C668.268,162.323 666.412,160.333 665.339,157.866 C664.264,155.401 663.727,150.213 663.727,142.303 L663.727,97.551 L654.059,97.551 L654.059,87.298 L663.727,87.298 L663.727,68.035 L676.838,60.125 L676.838,87.298 L690.094,87.298 L690.094,97.551 L676.838,97.551 L676.838,143.035 C676.838,146.796 677.069,149.213 677.534,150.286 C677.997,151.36 678.754,152.216 679.803,152.849 C680.853,153.484 682.355,153.802 684.308,153.802 C685.773,153.802 687.702,153.631 690.094,153.289" id="Fill-10" fill="#4D3F71" sketch:type="MSShapeGroup"></path>
            <path d="M702.839,165.081 L702.839,87.298 L714.704,87.298 L714.704,99.09 C717.731,93.572 720.527,89.934 723.09,88.176 C725.654,86.419 728.473,85.54 731.549,85.54 C735.992,85.54 740.509,86.957 745.099,89.788 L740.558,102.019 C737.336,100.115 734.113,99.163 730.89,99.163 C728.008,99.163 725.422,100.03 723.127,101.762 C720.831,103.497 719.196,105.901 718.219,108.977 C716.755,113.665 716.022,118.792 716.022,124.358 L716.022,165.081 L702.839,165.081" id="Fill-11" fill="#4D3F71" sketch:type="MSShapeGroup"></path>
            <path d="M802.594,126.043 C797.808,127.996 790.631,129.657 781.061,131.023 C775.641,131.804 771.807,132.683 769.562,133.66 C767.316,134.637 765.582,136.065 764.362,137.944 C763.141,139.825 762.531,141.912 762.531,144.207 C762.531,147.722 763.861,150.652 766.523,152.996 C769.183,155.34 773.078,156.511 778.205,156.511 C783.283,156.511 787.799,155.401 791.755,153.178 C795.71,150.958 798.614,147.918 800.47,144.06 C801.886,141.083 802.594,136.688 802.594,130.877 L802.594,126.043 L802.594,126.043 Z M803.693,155.486 C798.81,159.636 794.11,162.566 789.593,164.275 C785.077,165.984 780.23,166.839 775.055,166.839 C766.51,166.839 759.942,164.751 755.353,160.577 C750.763,156.401 748.468,151.067 748.468,144.573 C748.468,140.764 749.335,137.285 751.068,134.136 C752.801,130.986 755.072,128.46 757.881,126.555 C760.687,124.651 763.849,123.212 767.365,122.234 C769.953,121.551 773.858,120.891 779.084,120.257 C789.728,118.987 797.565,117.473 802.594,115.716 C802.642,113.91 802.668,112.762 802.668,112.273 C802.668,106.902 801.423,103.118 798.932,100.921 C795.563,97.943 790.557,96.453 783.918,96.453 C777.716,96.453 773.138,97.54 770.185,99.712 C767.23,101.886 765.046,105.73 763.63,111.248 L750.739,109.49 C751.911,103.972 753.84,99.517 756.525,96.123 C759.21,92.73 763.091,90.117 768.171,88.286 C773.249,86.455 779.132,85.54 785.822,85.54 C792.462,85.54 797.858,86.321 802.008,87.884 C806.158,89.447 809.211,91.412 811.164,93.779 C813.116,96.148 814.484,99.139 815.265,102.752 C815.705,104.998 815.924,109.051 815.924,114.91 L815.924,132.488 C815.924,144.745 816.205,152.496 816.767,155.743 C817.328,158.99 818.439,162.103 820.099,165.081 L806.33,165.081 C804.963,162.346 804.084,159.148 803.693,155.486 L803.693,155.486 Z" id="Fill-12" fill="#4D3F71" sketch:type="MSShapeGroup"></path>
            <path d="M848.298,126.629 C848.298,136.638 850.323,144.036 854.377,148.821 C858.429,153.607 863.337,155.999 869.098,155.999 C874.958,155.999 879.975,153.521 884.149,148.565 C888.325,143.609 890.412,135.93 890.412,125.53 C890.412,115.618 888.373,108.197 884.296,103.264 C880.218,98.333 875.348,95.867 869.684,95.867 C864.069,95.867 859.1,98.492 854.78,103.74 C850.458,108.99 848.298,116.62 848.298,126.629 L848.298,126.629 Z M836.359,194.89 L836.359,87.298 L848.371,87.298 L848.371,97.405 C851.202,93.45 854.401,90.483 857.966,88.506 C861.529,86.528 865.85,85.54 870.929,85.54 C877.569,85.54 883.428,87.25 888.508,90.667 C893.586,94.085 897.418,98.906 900.007,105.132 C902.594,111.357 903.888,118.181 903.888,125.603 C903.888,133.562 902.46,140.727 899.604,147.1 C896.747,153.471 892.596,158.355 887.153,161.749 C881.708,165.141 875.983,166.839 869.977,166.839 C865.583,166.839 861.639,165.911 858.149,164.055 C854.657,162.2 851.788,159.856 849.543,157.024 L849.543,194.89 L836.359,194.89 L836.359,194.89 Z" id="Fill-13" fill="#4D3F71" sketch:type="MSShapeGroup"></path>
        </g>
    </g>
</svg>